<svg width="421" height="157" viewBox="0 0 421 157" fill="none" xmlns="http://www.w3.org/2000/svg">
<g filter="url(#filter0_d)">
<rect x="20" y="14" width="381" height="117" fill="#FAFAFA"/>
</g>
<path d="M93 72.6641C93 90.3372 107.327 104.664 125 104.664C142.673 104.664 157 90.3372 157 72.6641C157 54.991 142.673 40.6641 125 40.6641C107.327 40.6641 93 54.991 93 72.6641Z" fill="#FFFF00"/>
<path d="M93 72.6641C93 90.3372 107.327 104.664 125 104.664C142.673 104.664 157 90.3372 157 72.6641C157 54.991 142.673 40.6641 125 40.6641C107.327 40.6641 93 54.991 93 72.6641Z" fill="url(#paint0_radial)"/>
<path d="M93 72.6641C93 90.3372 107.327 104.664 125 104.664C142.673 104.664 157 90.3372 157 72.6641C157 54.991 142.673 40.6641 125 40.6641C107.327 40.6641 93 54.991 93 72.6641Z" fill="url(#paint1_radial)"/>
<path d="M93 72.6641C93 90.3372 107.327 104.664 125 104.664C142.673 104.664 157 90.3372 157 72.6641C157 54.991 142.673 40.6641 125 40.6641C107.327 40.6641 93 54.991 93 72.6641Z" fill="url(#paint2_radial)"/>
<path d="M93 72.6641C93 90.3372 107.327 104.664 125 104.664C142.673 104.664 157 90.3372 157 72.6641C157 54.991 142.673 40.6641 125 40.6641C107.327 40.6641 93 54.991 93 72.6641Z" fill="url(#paint3_radial)"/>
<path d="M93 72.6641C93 90.3372 107.327 104.664 125 104.664C142.673 104.664 157 90.3372 157 72.6641C157 54.991 142.673 40.6641 125 40.6641C107.327 40.6641 93 54.991 93 72.6641Z" fill="url(#paint4_radial)"/>
<path d="M93 72.6641C93 90.3372 107.327 104.664 125 104.664C142.673 104.664 157 90.3372 157 72.6641C157 54.991 142.673 40.6641 125 40.6641C107.327 40.6641 93 54.991 93 72.6641Z" fill="url(#paint5_radial)"/>
<path d="M206.152 68.3789C206.152 68.8477 205.895 69.3867 205.379 69.9961C204.887 70.582 204.254 71.2031 203.48 71.8594C202.707 72.4922 201.84 73.1367 200.879 73.793C199.941 74.4258 199.004 75.0234 198.066 75.5859C197.152 76.1484 196.297 76.6523 195.5 77.0977C194.727 77.5195 194.117 77.8477 193.672 78.082C193.18 78.3398 192.676 78.5742 192.16 78.7852C191.645 78.9961 191.152 79.2422 190.684 79.5234C190.449 79.6406 190.238 79.7812 190.051 79.9453C189.863 80.0859 189.676 80.2266 189.488 80.3672C189.09 80.6484 188.715 80.8242 188.363 80.8945C188.012 80.9648 187.695 81.0469 187.414 81.1406C187.156 81.2344 186.957 81.3984 186.816 81.6328C186.676 81.8906 186.605 82.3125 186.605 82.8984C185.996 82.8984 185.398 82.8398 184.812 82.7227C184.227 82.6289 183.641 82.582 183.055 82.582C182.68 82.582 182.316 82.6289 181.965 82.7227C181.637 82.8398 181.297 82.957 180.945 83.0742C180.617 83.1914 180.277 83.2969 179.926 83.3906C179.598 83.5078 179.246 83.5664 178.871 83.5664H177.289C177.125 83.332 176.949 83.1445 176.762 83.0039C176.574 82.8633 176.375 82.7344 176.164 82.6172C175.977 82.5234 175.777 82.4297 175.566 82.3359C175.379 82.2422 175.191 82.1133 175.004 81.9492C174.746 81.6914 174.477 81.3867 174.195 81.0352C173.914 80.6836 173.645 80.3438 173.387 80.0156C172.918 79.4531 172.531 78.8203 172.227 78.1172C171.898 77.4141 171.641 76.6875 171.453 75.9375C171.242 75.1641 171.09 74.3906 170.996 73.6172C170.902 72.8203 170.855 72.0703 170.855 71.3672C170.855 71.2031 170.926 70.8984 171.066 70.4531C171.184 69.9844 171.336 69.4922 171.523 68.9766C171.688 68.4609 171.863 67.9688 172.051 67.5C172.238 67.0312 172.379 66.7031 172.473 66.5156C172.473 66.4453 172.566 66.2695 172.754 65.9883C172.918 65.6836 173.129 65.332 173.387 64.9336C173.645 64.5352 173.926 64.1016 174.23 63.6328C174.535 63.1406 174.828 62.6836 175.109 62.2617C175.391 61.8398 175.637 61.4648 175.848 61.1367C176.059 60.7852 176.211 60.5391 176.305 60.3984C176.445 60.1875 176.691 59.8359 177.043 59.3438C177.418 58.8516 177.852 58.3008 178.344 57.6914C178.836 57.082 179.363 56.4609 179.926 55.8281C180.488 55.1953 181.027 54.6328 181.543 54.1406C182.082 53.625 182.562 53.2383 182.984 52.9805C183.43 52.6992 183.77 52.6055 184.004 52.6992C184.988 51.3867 186.23 50.4258 187.73 49.8164C189.23 49.1836 190.777 48.8672 192.371 48.8672C192.91 48.8672 193.449 48.8438 193.988 48.7969C194.551 48.7266 195.09 48.8555 195.605 49.1836C195.84 49.6055 196.086 50.168 196.344 50.8711C196.625 51.5742 196.871 52.3242 197.082 53.1211C197.316 53.8945 197.504 54.6562 197.645 55.4062C197.785 56.1328 197.855 56.7305 197.855 57.1992C197.855 57.7617 197.727 58.2891 197.469 58.7812C197.234 59.2734 196.941 59.7539 196.59 60.2227C196.238 60.6914 195.875 61.1602 195.5 61.6289C195.148 62.0742 194.855 62.5312 194.621 63C194.434 63.375 194.199 63.9023 193.918 64.582C193.66 65.2617 193.355 65.9414 193.004 66.6211C192.652 67.2773 192.266 67.8516 191.844 68.3438C191.422 68.8359 190.965 69.082 190.473 69.082C190.215 69.082 189.934 68.9297 189.629 68.625C189.324 68.3203 189.172 68.0391 189.172 67.7812C189.172 66.8203 189.324 65.9062 189.629 65.0391C189.934 64.1719 190.309 63.3398 190.754 62.543C191.199 61.7227 191.691 60.9258 192.23 60.1523C192.77 59.3555 193.262 58.5586 193.707 57.7617C194.152 56.9648 194.527 56.1562 194.832 55.3359C195.137 54.4922 195.289 53.6133 195.289 52.6992C195.289 52.3711 195.254 52.0195 195.184 51.6445C195.137 51.2461 194.949 50.9531 194.621 50.7656H193.004C192.395 50.7656 191.75 50.8125 191.07 50.9062C190.391 50.9766 189.816 51.2461 189.348 51.7148C189.16 51.9023 188.973 52.1133 188.785 52.3477C188.621 52.5586 188.445 52.7578 188.258 52.9453C188.211 52.9922 188.141 53.0742 188.047 53.1914C187.953 53.2852 187.848 53.3906 187.73 53.5078C187.637 53.625 187.531 53.7305 187.414 53.8242C187.32 53.918 187.25 53.9766 187.203 54C187.109 54.0469 187.004 54.0938 186.887 54.1406C186.793 54.1875 186.699 54.2344 186.605 54.2812C186.418 54.375 186.23 54.4688 186.043 54.5625C185.855 54.6328 185.668 54.7266 185.48 54.8438C184.988 55.1719 184.543 55.5586 184.145 56.0039C183.77 56.4492 183.395 56.9062 183.02 57.375C182.668 57.8438 182.293 58.2891 181.895 58.7109C181.496 59.1328 181.027 59.4844 180.488 59.7656C179.879 60.7734 179.199 61.8398 178.449 62.9648C177.723 64.0664 177.031 65.2031 176.375 66.375C175.719 67.5469 175.168 68.7422 174.723 69.9609C174.277 71.1797 174.055 72.3867 174.055 73.582C174.055 74.0742 174.102 74.6484 174.195 75.3047C174.289 75.9375 174.453 76.5586 174.688 77.168C174.922 77.7773 175.215 78.3164 175.566 78.7852C175.941 79.2539 176.41 79.5586 176.973 79.6992C177.137 79.7461 177.301 79.7695 177.465 79.7695C177.652 79.7461 177.828 79.7344 177.992 79.7344C178.156 79.7344 178.309 79.7461 178.449 79.7695C178.613 79.793 178.754 79.875 178.871 80.0156H180.805C181.25 80.0156 181.66 79.9805 182.035 79.9102C182.41 79.8398 182.773 79.7461 183.125 79.6289C183.477 79.4883 183.828 79.3477 184.18 79.207C184.531 79.043 184.906 78.8789 185.305 78.7148C185.539 78.6445 185.75 78.5742 185.938 78.5039C186.125 78.4336 186.324 78.3633 186.535 78.293C187.051 78.1523 187.555 78.0352 188.047 77.9414C188.539 77.8477 189.02 77.6836 189.488 77.4492C190.051 77.168 190.578 76.8516 191.07 76.5C191.586 76.1484 192.125 75.8203 192.688 75.5156C192.852 75.4453 193.051 75.3984 193.285 75.375C193.543 75.3516 193.801 75.3398 194.059 75.3398C194.316 75.3164 194.551 75.293 194.762 75.2695C194.996 75.2461 195.16 75.1875 195.254 75.0938C195.465 74.8828 195.664 74.6719 195.852 74.4609C196.062 74.2266 196.285 74.0039 196.52 73.793C196.918 73.7227 197.293 73.5703 197.645 73.3359C197.996 73.1016 198.371 72.9492 198.77 72.8789C198.887 72.832 198.992 72.7852 199.086 72.7383C199.203 72.668 199.32 72.5977 199.438 72.5273C199.766 72.3398 200.082 72.1406 200.387 71.9297C200.691 71.7188 200.996 71.5195 201.301 71.332C202.801 70.3242 204.312 69.3398 205.836 68.3789H206.152ZM225.137 69.9609C225.23 70.3125 225.195 70.6172 225.031 70.875C224.867 71.1094 224.645 71.3203 224.363 71.5078C224.105 71.6953 223.812 71.8711 223.484 72.0352C223.18 72.1758 222.922 72.3398 222.711 72.5273C221.656 72.7617 220.695 72.9375 219.828 73.0547C218.984 73.1484 218.047 73.2773 217.016 73.4414C216.711 73.4883 216.418 73.4883 216.137 73.4414C215.879 73.3711 215.609 73.3477 215.328 73.3711C215.164 73.3711 215.012 73.3711 214.871 73.3711C214.73 73.3477 214.59 73.3477 214.449 73.3711C213.91 73.418 213.559 73.6055 213.395 73.9336C213.23 74.2383 213.09 74.6016 212.973 75.0234C212.879 75.4219 212.75 75.8086 212.586 76.1836C212.445 76.5352 212.129 76.7812 211.637 76.9219C211.59 77.0391 211.602 77.1445 211.672 77.2383C211.766 77.332 211.836 77.4141 211.883 77.4844C211.484 77.6016 211.215 77.8125 211.074 78.1172C210.957 78.4219 210.852 78.7266 210.758 79.0312C210.664 79.3359 210.523 79.5938 210.336 79.8047C210.172 80.0156 209.844 80.0859 209.352 80.0156C208.625 80.7891 207.77 81.4102 206.785 81.8789C205.801 82.3711 204.781 82.6875 203.727 82.8281C203.539 82.7344 203.352 82.6172 203.164 82.4766C203 82.3359 202.824 82.207 202.637 82.0898C202.473 81.9727 202.285 81.8789 202.074 81.8086C201.887 81.7617 201.664 81.7617 201.406 81.8086C201.383 81.3164 201.289 80.8594 201.125 80.4375C200.938 80.0156 200.703 79.6172 200.422 79.2422C200.375 78.8203 200.434 78.4336 200.598 78.082C200.738 77.707 200.891 77.3438 201.055 76.9922C201.219 76.6406 201.359 76.2891 201.477 75.9375C201.57 75.5625 201.547 75.1406 201.406 74.6719C201.641 74.5312 201.793 74.3672 201.863 74.1797C201.957 73.9922 202.016 73.8047 202.039 73.6172C202.086 73.4062 202.145 73.2188 202.215 73.0547C202.285 72.8672 202.449 72.7148 202.707 72.5977C202.52 72.0352 202.543 71.625 202.777 71.3672C203.035 71.0859 203.34 70.8398 203.691 70.6289C204.043 70.418 204.371 70.1836 204.676 69.9258C204.98 69.668 205.098 69.2812 205.027 68.7656C205.168 68.625 205.332 68.5078 205.52 68.4141C205.707 68.3203 205.883 68.2383 206.047 68.168C206.234 68.0742 206.41 67.9805 206.574 67.8867C206.738 67.793 206.891 67.6641 207.031 67.5C206.867 67.3828 206.785 67.2656 206.785 67.1484C206.809 67.0312 206.844 66.9141 206.891 66.7969C206.938 66.6562 206.984 66.5156 207.031 66.375C207.102 66.2344 207.102 66.0938 207.031 65.9531C207.664 66.0469 208.215 65.9648 208.684 65.707C209.176 65.4258 209.633 65.1445 210.055 64.8633C210.5 64.582 210.945 64.3828 211.391 64.2656C211.836 64.1484 212.352 64.2891 212.938 64.6875C212.984 64.8516 213.055 65.0977 213.148 65.4258C213.266 65.7305 213.371 66.0469 213.465 66.375C213.582 66.7031 213.688 67.0195 213.781 67.3242C213.875 67.6289 213.934 67.8516 213.957 67.9922C213.957 68.1094 213.957 68.2969 213.957 68.5547C213.957 68.8125 213.957 69.0938 213.957 69.3984C213.957 69.6797 213.957 69.9492 213.957 70.207C213.957 70.4648 213.957 70.6641 213.957 70.8047C214.637 71.2031 215.316 71.4492 215.996 71.543C216.676 71.6133 217.355 71.4492 218.035 71.0508C218.293 71.2852 218.539 71.3555 218.773 71.2617C219.008 71.1445 219.23 71.0156 219.441 70.875C219.676 70.7344 219.91 70.6641 220.145 70.6641C220.379 70.6406 220.613 70.8281 220.848 71.2266C221.176 70.9219 221.516 70.7344 221.867 70.6641C222.219 70.5703 222.582 70.5234 222.957 70.5234C223.332 70.5 223.695 70.4648 224.047 70.418C224.422 70.3711 224.785 70.2188 225.137 69.9609ZM211.637 70.5586C211.637 70.207 211.695 69.832 211.812 69.4336C211.93 69.0352 212.023 68.6484 212.094 68.2734C212.164 67.875 212.152 67.5 212.059 67.1484C211.988 66.7969 211.766 66.4805 211.391 66.1992C211.133 66.3398 210.922 66.5391 210.758 66.7969C210.594 67.0312 210.43 67.2773 210.266 67.5352C210.102 67.7695 209.902 67.9688 209.668 68.1328C209.457 68.2969 209.176 68.3438 208.824 68.2734C208.707 68.5547 208.707 68.7891 208.824 68.9766C208.941 69.1406 209.082 69.3047 209.246 69.4688C209.41 69.6094 209.562 69.7617 209.703 69.9258C209.867 70.0898 209.926 70.3008 209.879 70.5586C209.973 70.6289 210.102 70.6992 210.266 70.7695C210.43 70.8164 210.594 70.8516 210.758 70.875C210.945 70.875 211.121 70.8516 211.285 70.8047C211.449 70.7578 211.566 70.6758 211.637 70.5586ZM211.391 73.3711C210.922 73.3711 210.512 73.2656 210.16 73.0547C209.832 72.8203 209.492 72.5625 209.141 72.2812C208.812 72 208.461 71.7422 208.086 71.5078C207.734 71.25 207.301 71.0977 206.785 71.0508C206.574 71.332 206.328 71.6016 206.047 71.8594C205.766 72.0938 205.52 72.3516 205.309 72.6328C205.098 72.9141 204.945 73.2188 204.852 73.5469C204.781 73.875 204.84 74.25 205.027 74.6719C204.488 74.9297 204.125 75.3047 203.938 75.7969C203.75 76.2656 203.621 76.7812 203.551 77.3438C203.504 77.9062 203.457 78.4688 203.41 79.0312C203.363 79.5938 203.211 80.0977 202.953 80.543L203.727 80.0156C203.82 80.0625 203.891 80.1328 203.938 80.2266C204.008 80.3203 204.02 80.4258 203.973 80.543C204.16 80.3555 204.371 80.2148 204.605 80.1211C204.84 80.0039 205.074 79.9219 205.309 79.875C205.566 79.8047 205.812 79.7461 206.047 79.6992C206.305 79.6523 206.551 79.582 206.785 79.4883C207.371 79.8164 207.793 79.8867 208.051 79.6992C208.309 79.5117 208.52 79.2305 208.684 78.8555C208.848 78.4805 209.023 78.0938 209.211 77.6953C209.398 77.2734 209.703 77.0156 210.125 76.9219L209.879 76.6758C210.277 76.1836 210.629 75.6797 210.934 75.1641C211.262 74.625 211.414 74.0273 211.391 73.3711ZM244.543 69.9609C244.637 70.3125 244.602 70.6172 244.438 70.875C244.273 71.1094 244.051 71.3203 243.77 71.5078C243.512 71.6953 243.219 71.8711 242.891 72.0352C242.586 72.1758 242.328 72.3398 242.117 72.5273C241.062 72.7617 240.102 72.9375 239.234 73.0547C238.391 73.1484 237.453 73.2773 236.422 73.4414C236.117 73.4883 235.824 73.4883 235.543 73.4414C235.285 73.3711 235.016 73.3477 234.734 73.3711C234.57 73.3711 234.418 73.3711 234.277 73.3711C234.137 73.3477 233.996 73.3477 233.855 73.3711C233.316 73.418 232.965 73.6055 232.801 73.9336C232.637 74.2383 232.496 74.6016 232.379 75.0234C232.285 75.4219 232.156 75.8086 231.992 76.1836C231.852 76.5352 231.535 76.7812 231.043 76.9219C230.996 77.0391 231.008 77.1445 231.078 77.2383C231.172 77.332 231.242 77.4141 231.289 77.4844C230.891 77.6016 230.621 77.8125 230.48 78.1172C230.363 78.4219 230.258 78.7266 230.164 79.0312C230.07 79.3359 229.93 79.5938 229.742 79.8047C229.578 80.0156 229.25 80.0859 228.758 80.0156C228.031 80.7891 227.176 81.4102 226.191 81.8789C225.207 82.3711 224.188 82.6875 223.133 82.8281C222.945 82.7344 222.758 82.6172 222.57 82.4766C222.406 82.3359 222.23 82.207 222.043 82.0898C221.879 81.9727 221.691 81.8789 221.48 81.8086C221.293 81.7617 221.07 81.7617 220.812 81.8086C220.789 81.3164 220.695 80.8594 220.531 80.4375C220.344 80.0156 220.109 79.6172 219.828 79.2422C219.781 78.8203 219.84 78.4336 220.004 78.082C220.145 77.707 220.297 77.3438 220.461 76.9922C220.625 76.6406 220.766 76.2891 220.883 75.9375C220.977 75.5625 220.953 75.1406 220.812 74.6719C221.047 74.5312 221.199 74.3672 221.27 74.1797C221.363 73.9922 221.422 73.8047 221.445 73.6172C221.492 73.4062 221.551 73.2188 221.621 73.0547C221.691 72.8672 221.855 72.7148 222.113 72.5977C221.926 72.0352 221.949 71.625 222.184 71.3672C222.441 71.0859 222.746 70.8398 223.098 70.6289C223.449 70.418 223.777 70.1836 224.082 69.9258C224.387 69.668 224.504 69.2812 224.434 68.7656C224.574 68.625 224.738 68.5078 224.926 68.4141C225.113 68.3203 225.289 68.2383 225.453 68.168C225.641 68.0742 225.816 67.9805 225.98 67.8867C226.145 67.793 226.297 67.6641 226.438 67.5C226.273 67.3828 226.191 67.2656 226.191 67.1484C226.215 67.0312 226.25 66.9141 226.297 66.7969C226.344 66.6562 226.391 66.5156 226.438 66.375C226.508 66.2344 226.508 66.0938 226.438 65.9531C227.07 66.0469 227.621 65.9648 228.09 65.707C228.582 65.4258 229.039 65.1445 229.461 64.8633C229.906 64.582 230.352 64.3828 230.797 64.2656C231.242 64.1484 231.758 64.2891 232.344 64.6875C232.391 64.8516 232.461 65.0977 232.555 65.4258C232.672 65.7305 232.777 66.0469 232.871 66.375C232.988 66.7031 233.094 67.0195 233.188 67.3242C233.281 67.6289 233.34 67.8516 233.363 67.9922C233.363 68.1094 233.363 68.2969 233.363 68.5547C233.363 68.8125 233.363 69.0938 233.363 69.3984C233.363 69.6797 233.363 69.9492 233.363 70.207C233.363 70.4648 233.363 70.6641 233.363 70.8047C234.043 71.2031 234.723 71.4492 235.402 71.543C236.082 71.6133 236.762 71.4492 237.441 71.0508C237.699 71.2852 237.945 71.3555 238.18 71.2617C238.414 71.1445 238.637 71.0156 238.848 70.875C239.082 70.7344 239.316 70.6641 239.551 70.6641C239.785 70.6406 240.02 70.8281 240.254 71.2266C240.582 70.9219 240.922 70.7344 241.273 70.6641C241.625 70.5703 241.988 70.5234 242.363 70.5234C242.738 70.5 243.102 70.4648 243.453 70.418C243.828 70.3711 244.191 70.2188 244.543 69.9609ZM231.043 70.5586C231.043 70.207 231.102 69.832 231.219 69.4336C231.336 69.0352 231.43 68.6484 231.5 68.2734C231.57 67.875 231.559 67.5 231.465 67.1484C231.395 66.7969 231.172 66.4805 230.797 66.1992C230.539 66.3398 230.328 66.5391 230.164 66.7969C230 67.0312 229.836 67.2773 229.672 67.5352C229.508 67.7695 229.309 67.9688 229.074 68.1328C228.863 68.2969 228.582 68.3438 228.23 68.2734C228.113 68.5547 228.113 68.7891 228.23 68.9766C228.348 69.1406 228.488 69.3047 228.652 69.4688C228.816 69.6094 228.969 69.7617 229.109 69.9258C229.273 70.0898 229.332 70.3008 229.285 70.5586C229.379 70.6289 229.508 70.6992 229.672 70.7695C229.836 70.8164 230 70.8516 230.164 70.875C230.352 70.875 230.527 70.8516 230.691 70.8047C230.855 70.7578 230.973 70.6758 231.043 70.5586ZM230.797 73.3711C230.328 73.3711 229.918 73.2656 229.566 73.0547C229.238 72.8203 228.898 72.5625 228.547 72.2812C228.219 72 227.867 71.7422 227.492 71.5078C227.141 71.25 226.707 71.0977 226.191 71.0508C225.98 71.332 225.734 71.6016 225.453 71.8594C225.172 72.0938 224.926 72.3516 224.715 72.6328C224.504 72.9141 224.352 73.2188 224.258 73.5469C224.188 73.875 224.246 74.25 224.434 74.6719C223.895 74.9297 223.531 75.3047 223.344 75.7969C223.156 76.2656 223.027 76.7812 222.957 77.3438C222.91 77.9062 222.863 78.4688 222.816 79.0312C222.77 79.5938 222.617 80.0977 222.359 80.543L223.133 80.0156C223.227 80.0625 223.297 80.1328 223.344 80.2266C223.414 80.3203 223.426 80.4258 223.379 80.543C223.566 80.3555 223.777 80.2148 224.012 80.1211C224.246 80.0039 224.48 79.9219 224.715 79.875C224.973 79.8047 225.219 79.7461 225.453 79.6992C225.711 79.6523 225.957 79.582 226.191 79.4883C226.777 79.8164 227.199 79.8867 227.457 79.6992C227.715 79.5117 227.926 79.2305 228.09 78.8555C228.254 78.4805 228.43 78.0938 228.617 77.6953C228.805 77.2734 229.109 77.0156 229.531 76.9219L229.285 76.6758C229.684 76.1836 230.035 75.6797 230.34 75.1641C230.668 74.625 230.82 74.0273 230.797 73.3711ZM263.422 69.4688C263.445 69.8203 263.375 70.1602 263.211 70.4883C263.07 70.8164 262.941 71.1094 262.824 71.3672L261.699 72.5625L261.031 74.5664C260.773 74.7539 260.492 74.9414 260.188 75.1289C259.906 75.293 259.648 75.4688 259.414 75.6562C259.156 75.8672 258.922 76.1016 258.711 76.3594C258.523 76.6172 258.312 76.8398 258.078 77.0273C257.844 77.2148 257.562 77.3789 257.234 77.5195C256.93 77.6367 256.648 77.7773 256.391 77.9414C255.922 78.2227 255.477 78.5156 255.055 78.8203C254.656 79.125 254.234 79.418 253.789 79.6992C253.672 79.7461 253.578 79.8047 253.508 79.875C253.461 79.9219 253.379 79.9688 253.262 80.0156C253.191 80.0625 252.887 80.1562 252.348 80.2969C251.809 80.4375 251.211 80.6016 250.555 80.7891C249.922 80.9531 249.324 81.1055 248.762 81.2461C248.199 81.3867 247.883 81.457 247.812 81.457C247.391 81.5039 246.957 81.5273 246.512 81.5273C246.066 81.5273 245.621 81.5391 245.176 81.5625L244.648 81.8789C244.391 81.6914 244.109 81.5156 243.805 81.3516C243.5 81.1875 243.242 81.0117 243.031 80.8242C242.797 80.6133 242.562 80.3789 242.328 80.1211C242.094 79.8398 241.883 79.582 241.695 79.3477C241.578 79.0195 241.461 78.7031 241.344 78.3984C241.227 78.0703 241.133 77.7539 241.062 77.4492L240.887 76.1133C240.84 75.668 240.793 75.2344 240.746 74.8125C240.723 74.3906 240.688 73.957 240.641 73.5117C241.039 72.4102 241.391 71.3086 241.695 70.207C242.023 69.082 242.422 67.9805 242.891 66.9023C243.008 66.6445 243.113 66.3867 243.207 66.1289C243.324 65.8477 243.441 65.5781 243.559 65.3203C243.699 65.0391 243.852 64.7812 244.016 64.5469C244.18 64.2891 244.32 64.0312 244.438 63.7734C244.555 63.4922 244.648 63.2109 244.719 62.9297C244.789 62.625 244.883 62.3438 245 62.0859C245.07 61.9453 245.188 61.7461 245.352 61.4883C245.516 61.207 245.691 60.9258 245.879 60.6445C246.066 60.3398 246.242 60.0469 246.406 59.7656C246.594 59.4844 246.746 59.2617 246.863 59.0977C247.051 58.8633 247.238 58.6406 247.426 58.4297C247.613 58.2188 247.766 57.9844 247.883 57.7266C248.117 57.3281 248.34 56.8242 248.551 56.2148C248.762 55.6055 248.996 55.0664 249.254 54.5977C249.535 54.082 249.863 53.6016 250.238 53.1562C250.637 52.6875 251 52.207 251.328 51.7148C251.68 51.2227 252.02 50.6836 252.348 50.0977L253.895 48.9727L254.598 49.6758L256.285 49.3945L257.34 50.9766C257.293 51.3281 257.234 51.7266 257.164 52.1719C257.117 52.6172 257.07 53.0742 257.023 53.543C257 53.9883 256.977 54.4336 256.953 54.8789C256.953 55.3008 256.977 55.6758 257.023 56.0039C256.906 56.4258 256.73 56.8711 256.496 57.3398C256.285 57.7852 256.039 58.1719 255.758 58.5L255.617 60.3984L254.211 61.6641L254.035 63.457L252.84 64.8633C252.77 65.1914 252.699 65.5312 252.629 65.8828C252.559 66.2109 252.465 66.5273 252.348 66.832C252.23 67.1133 252.09 67.4062 251.926 67.7109C251.762 67.9922 251.598 68.2852 251.434 68.5898C250.965 68.9883 250.484 69.4336 249.992 69.9258C249.5 70.418 249.055 70.9102 248.656 71.4023C248.445 71.6602 248.246 71.9414 248.059 72.2461C247.895 72.5273 247.719 72.7969 247.531 73.0547C246.922 73.8281 246.266 74.5547 245.562 75.2344C244.859 75.9141 244.168 76.6172 243.488 77.3438L244.262 78.7148C244.754 78.8789 245.258 79.0312 245.773 79.1719C246.289 79.3125 246.805 79.4414 247.32 79.5586C247.555 79.5117 247.824 79.4648 248.129 79.418C248.434 79.3477 248.75 79.2773 249.078 79.207C249.406 79.1133 249.723 79.0195 250.027 78.9258C250.355 78.832 250.625 78.7383 250.836 78.6445C251.305 78.457 251.844 78.1875 252.453 77.8359C253.062 77.4609 253.578 77.1328 254 76.8516C254.75 76.3828 255.512 75.9023 256.285 75.4102C257.059 74.918 257.797 74.4023 258.5 73.8633C258.969 73.5117 259.461 73.0664 259.977 72.5273C260.492 71.9883 260.973 71.4844 261.418 71.0156C261.887 70.5234 262.297 70.125 262.648 69.8203C263.023 69.5156 263.281 69.3984 263.422 69.4688ZM253.859 52.8398C253.367 53.6602 252.84 54.457 252.277 55.2305C251.738 55.9805 251.234 56.7656 250.766 57.5859C250.602 57.8672 250.461 58.1602 250.344 58.4648C250.227 58.7461 250.074 59.0273 249.887 59.3086C249.723 59.5664 249.547 59.8242 249.359 60.082C249.172 60.3398 249.008 60.6211 248.867 60.9258C248.586 61.4648 248.328 62.0391 248.094 62.6484C247.883 63.2344 247.648 63.8086 247.391 64.3711C247.109 64.9336 246.781 65.4609 246.406 65.9531C246.031 66.4453 245.691 66.9727 245.387 67.5352L244.824 68.6602C244.777 68.7773 244.73 68.8711 244.684 68.9414C244.637 68.9883 244.59 69.0703 244.543 69.1875C244.449 69.4453 244.402 69.7266 244.402 70.0312C244.402 70.3359 244.367 70.6172 244.297 70.875C244.227 71.1562 244.121 71.4258 243.98 71.6836C243.84 71.9414 243.711 72.1992 243.594 72.457C243.477 72.7148 243.383 72.9844 243.312 73.2656C243.242 73.5234 243.16 73.7812 243.066 74.0391C243.254 73.8516 243.453 73.6875 243.664 73.5469C243.898 73.3828 244.121 73.207 244.332 73.0195C244.543 72.8086 244.742 72.5859 244.93 72.3516C245.117 72.1172 245.328 71.9062 245.562 71.7188C245.773 71.5312 245.996 71.3672 246.23 71.2266C246.488 71.0625 246.734 70.8984 246.969 70.7344C247.344 70.2188 247.672 69.6914 247.953 69.1523C248.094 68.8945 248.211 68.6016 248.305 68.2734C248.422 67.9453 248.562 67.6523 248.727 67.3945C248.867 67.1367 249.043 66.8906 249.254 66.6562C249.488 66.4219 249.688 66.1758 249.852 65.918C250.039 65.6602 250.191 65.3906 250.309 65.1094C250.449 64.8281 250.602 64.5586 250.766 64.3008C251.094 63.7852 251.457 63.293 251.855 62.8242L252.031 60.6094L253.297 59.1328L253.473 57.7969L254.352 56.5664L254.457 54.5977L253.859 52.8398ZM283.531 77.3086C283.203 77.8711 282.945 78.3281 282.758 78.6797C282.594 79.0078 282.418 79.2891 282.23 79.5234C282.066 79.7344 281.867 79.9336 281.633 80.1211C281.422 80.2852 281.117 80.4961 280.719 80.7539C280.461 80.9883 280.203 81.1875 279.945 81.3516C279.734 81.5156 279.523 81.6562 279.312 81.7734C279.125 81.8906 278.973 81.9492 278.855 81.9492C278.809 81.9492 278.762 81.9375 278.715 81.9141C278.668 81.9141 278.621 81.9141 278.574 81.9141C278.434 81.9141 278.293 81.9141 278.152 81.9141C278.035 81.9375 277.93 81.8555 277.836 81.668C277.766 81.7383 277.707 81.8203 277.66 81.9141C277.613 82.0078 277.566 82.0898 277.52 82.1602C277.473 82.2539 277.402 82.3242 277.309 82.3711C277.238 82.418 277.133 82.418 276.992 82.3711L276.816 82.1602L276.289 82.6172C275.633 82.2891 275 82.0078 274.391 81.7734C273.805 81.5625 273.277 81.3047 272.809 81C272.34 80.6953 271.941 80.3086 271.613 79.8398C271.285 79.3477 271.051 78.6797 270.91 77.8359C270.793 77.6953 270.664 77.5781 270.523 77.4844C270.383 77.3672 270.219 77.332 270.031 77.3789C269.797 77.7773 269.516 78.1172 269.188 78.3984C268.859 78.6797 268.531 78.9844 268.203 79.3125C268.086 79.4297 267.992 79.5586 267.922 79.6992C267.852 79.8398 267.758 79.9688 267.641 80.0859C267.453 80.2969 267.23 80.4492 266.973 80.543C266.715 80.6133 266.457 80.6836 266.199 80.7539C265.941 80.8242 265.695 80.9414 265.461 81.1055C265.25 81.2695 265.098 81.5508 265.004 81.9492C264.723 81.7852 264.441 81.7383 264.16 81.8086C263.949 81.8555 263.727 81.9023 263.492 81.9492C263.258 82.0195 263.023 82.0547 262.789 82.0547C262.578 82.0781 262.367 82.0547 262.156 81.9844C261.945 81.9141 261.758 81.7617 261.594 81.5273C261.266 81.668 260.961 81.6562 260.68 81.4922C260.398 81.3516 260.129 81.1523 259.871 80.8945C259.637 80.6133 259.402 80.3203 259.168 80.0156C258.934 79.7109 258.711 79.4883 258.5 79.3477C258.359 78.9727 258.371 78.6562 258.535 78.3984C258.676 78.1172 258.84 77.8594 259.027 77.625C259.191 77.3672 259.309 77.1211 259.379 76.8867C259.449 76.6289 259.344 76.3242 259.062 75.9727C259.297 75.6211 259.508 75.2578 259.695 74.8828C259.883 74.4844 260.07 74.0977 260.258 73.7227C260.469 73.3242 260.68 72.9492 260.891 72.5977C261.125 72.2227 261.406 71.9062 261.734 71.6484C261.594 71.4844 261.523 71.332 261.523 71.1914C261.523 71.0273 261.559 70.875 261.629 70.7344C261.699 70.5703 261.781 70.418 261.875 70.2773C261.969 70.1133 262.039 69.9609 262.086 69.8203L263.105 69.3281L262.859 68.4844C263.117 68.5312 263.305 68.5195 263.422 68.4492C263.562 68.3789 263.656 68.2734 263.703 68.1328C263.773 67.9922 263.82 67.8398 263.844 67.6758C263.891 67.4883 263.949 67.3242 264.02 67.1836C264.137 66.9727 264.312 66.8203 264.547 66.7266C265.039 66.3516 265.52 65.9531 265.988 65.5312C266.48 65.1094 266.961 64.6992 267.43 64.3008C267.922 63.9023 268.426 63.5273 268.941 63.1758C269.457 62.8008 270.02 62.4844 270.629 62.2266C271.051 62.2969 271.379 62.4258 271.613 62.6133C271.871 62.8008 272.059 63.0234 272.176 63.2812C272.316 63.5391 272.422 63.832 272.492 64.1602C272.562 64.4648 272.633 64.7695 272.703 65.0742C272.82 65.4727 272.961 65.8125 273.125 66.0938C273.289 66.375 273.57 66.6094 273.969 66.7969C273.641 67.3594 273.512 67.9219 273.582 68.4844C273.652 69.0234 273.723 69.5977 273.793 70.207C273.863 70.7695 273.852 71.3203 273.758 71.8594C273.688 72.3984 273.348 72.8789 272.738 73.3008C272.691 73.4648 272.68 73.6406 272.703 73.8281C272.727 74.0156 272.738 74.2031 272.738 74.3906C272.738 74.5781 272.703 74.7539 272.633 74.918C272.562 75.082 272.434 75.2109 272.246 75.3047C272.457 75.5625 272.562 75.8203 272.562 76.0781C272.586 76.3359 272.598 76.582 272.598 76.8164C272.621 77.0508 272.68 77.2617 272.773 77.4492C272.891 77.6367 273.148 77.7773 273.547 77.8711C273.617 78.1758 273.676 78.4102 273.723 78.5742C273.793 78.7148 273.863 78.832 273.934 78.9258C274.027 79.0195 274.145 79.1133 274.285 79.207C274.426 79.2773 274.613 79.3945 274.848 79.5586C275.035 79.6055 275.246 79.6055 275.48 79.5586C275.715 79.5117 275.902 79.582 276.043 79.7695C276.16 79.6523 276.301 79.5938 276.465 79.5938C276.629 79.5703 276.781 79.5703 276.922 79.5938L277.379 80.3672C277.637 80.1797 277.93 80.0156 278.258 79.875C278.586 79.7344 278.902 79.6172 279.207 79.5234C279.559 79.4297 279.91 79.3477 280.262 79.2773L283.531 77.3086ZM270.031 65.2852C269.82 65.4727 269.562 65.6602 269.258 65.8477C268.953 66.0352 268.648 66.2344 268.344 66.4453C268.062 66.6562 267.816 66.8906 267.605 67.1484C267.395 67.3828 267.266 67.6641 267.219 67.9922C266.68 68.0859 266.305 68.3086 266.094 68.6602C265.883 69.0117 265.707 69.3984 265.566 69.8203C265.426 70.2422 265.273 70.6641 265.109 71.0859C264.945 71.4844 264.652 71.8008 264.23 72.0352C264.09 72.1289 263.961 72.1758 263.844 72.1758C263.867 72.1758 263.797 72.2227 263.633 72.3164C263.375 72.5039 263.152 72.7383 262.965 73.0195C262.777 73.3008 262.613 73.6055 262.473 73.9336C262.355 74.2617 262.238 74.6016 262.121 74.9531C262.027 75.2812 261.934 75.5859 261.84 75.8672C261.512 75.9141 261.266 75.9844 261.102 76.0781C260.938 76.1719 260.832 76.2773 260.785 76.3945C260.762 76.4883 260.773 76.6055 260.82 76.7461C260.867 76.8867 260.938 77.0391 261.031 77.2031C261.125 77.3438 261.219 77.5078 261.312 77.6953C261.43 77.8828 261.523 78.0703 261.594 78.2578C261.664 78.4453 261.699 78.6328 261.699 78.8203C261.723 79.0078 261.676 79.1836 261.559 79.3477C261.887 79.6055 262.203 79.6641 262.508 79.5234C262.812 79.3594 263.094 79.1836 263.352 78.9961C263.445 78.9258 263.539 78.8555 263.633 78.7852C263.75 78.6914 263.867 78.6211 263.984 78.5742C264.523 78.6914 265.016 78.6562 265.461 78.4688C265.906 78.2812 266.316 78.0234 266.691 77.6953C267.066 77.3672 267.43 77.0156 267.781 76.6406C268.133 76.2656 268.484 75.9375 268.836 75.6562L268.555 75.375C268.977 75.2578 269.27 75.1055 269.434 74.918C269.621 74.707 269.738 74.4727 269.785 74.2148C269.832 73.957 269.832 73.6875 269.785 73.4062C269.738 73.1016 269.703 72.7852 269.68 72.457C269.656 72.2695 269.645 72.0938 269.645 71.9297C269.668 71.7422 269.715 71.5547 269.785 71.3672C269.598 70.8281 269.562 70.3125 269.68 69.8203C269.82 69.3281 269.996 68.8594 270.207 68.4141C270.441 67.9453 270.664 67.4766 270.875 67.0078C271.086 66.5391 271.191 66.0469 271.191 65.5312L270.031 65.2852ZM307.508 70.9453C307.25 71.2734 307.051 71.6367 306.91 72.0352C306.77 72.4336 306.594 72.8086 306.383 73.1602C306.195 73.5117 305.949 73.8047 305.645 74.0391C305.363 74.2734 304.965 74.3789 304.449 74.3555C304.074 74.4961 303.793 74.7539 303.605 75.1289C303.441 75.4805 303.277 75.8438 303.113 76.2188C302.949 76.5703 302.738 76.8633 302.48 77.0977C302.223 77.3086 301.836 77.332 301.32 77.168C300.664 77.4492 300.066 77.8242 299.527 78.293C299.012 78.7383 298.52 79.207 298.051 79.6992C297.887 79.8633 297.699 80.0742 297.488 80.332C297.277 80.5664 297.078 80.7422 296.891 80.8594C296.727 80.9531 296.562 80.9648 296.398 80.8945C296.234 80.8242 296.082 80.7539 295.941 80.6836C295.801 80.5898 295.66 80.543 295.52 80.543C295.402 80.543 295.297 80.6484 295.203 80.8594C295.367 81.1875 295.402 81.4102 295.309 81.5273C295.215 81.668 295.062 81.7734 294.852 81.8438C294.641 81.9141 294.418 81.9727 294.184 82.0195C293.949 82.0664 293.762 82.1484 293.621 82.2656C293.34 82.5234 293.141 82.8398 293.023 83.2148C292.906 83.5898 292.801 83.9648 292.707 84.3398C292.613 84.7148 292.473 85.0664 292.285 85.3945C292.121 85.7461 291.84 86.0156 291.441 86.2031C291.676 86.3672 291.77 86.5312 291.723 86.6953C291.699 86.8594 291.641 87.0234 291.547 87.1875C291.453 87.375 291.383 87.5508 291.336 87.7148C291.312 87.8789 291.406 88.043 291.617 88.207C291.266 88.6523 290.949 89.1328 290.668 89.6484C290.41 90.1641 290.152 90.6797 289.895 91.1953C289.637 91.7344 289.355 92.25 289.051 92.7422C288.77 93.2578 288.406 93.7148 287.961 94.1133L288.066 94.957C287.715 94.8633 287.492 94.875 287.398 94.9922C287.328 95.1094 287.293 95.2734 287.293 95.4844C287.293 95.6953 287.293 95.9062 287.293 96.1172C287.316 96.3516 287.246 96.5273 287.082 96.6445C287.012 96.7383 286.93 96.8086 286.836 96.8555C286.766 96.9023 286.695 96.9609 286.625 97.0312C285.875 97.5938 285.359 98.3086 285.078 99.1758C285.031 99.3164 284.996 99.457 284.973 99.5977C284.949 99.7383 284.914 99.8906 284.867 100.055C284.75 100.383 284.562 100.723 284.305 101.074C284.047 101.426 283.766 101.789 283.461 102.164C283.156 102.539 282.863 102.926 282.582 103.324C282.301 103.746 282.078 104.168 281.914 104.59C281.539 104.543 281.246 104.578 281.035 104.695C280.801 104.836 280.613 105.012 280.473 105.223C280.332 105.457 280.215 105.703 280.121 105.961C280.027 106.219 279.91 106.441 279.77 106.629C279.605 106.84 279.406 106.992 279.172 107.086C278.914 107.203 278.586 107.203 278.188 107.086L276.605 108.527C276.324 108.363 276.055 108.328 275.797 108.422C275.516 108.516 275.246 108.645 274.988 108.809C274.707 108.973 274.438 109.102 274.18 109.195C273.898 109.289 273.605 109.254 273.301 109.09C273.137 109.277 272.996 109.371 272.879 109.371C272.762 109.395 272.621 109.301 272.457 109.09L271.93 109.652C271.648 109.418 271.309 109.195 270.91 108.984C270.488 108.797 270.102 108.574 269.75 108.316C269.398 108.082 269.117 107.801 268.906 107.473C268.695 107.168 268.66 106.77 268.801 106.277C268.754 106.137 268.684 105.984 268.59 105.82C268.473 105.656 268.379 105.48 268.309 105.293C268.238 105.129 268.191 104.953 268.168 104.766C268.145 104.602 268.191 104.449 268.309 104.309C268.098 103.91 268.027 103.5 268.098 103.078C268.145 102.68 268.227 102.281 268.344 101.883C268.461 101.484 268.555 101.086 268.625 100.688C268.695 100.289 268.625 99.8906 268.414 99.4922C268.695 99.2812 268.906 99.0117 269.047 98.6836C269.164 98.3555 269.281 98.0156 269.398 97.6641C269.492 97.3125 269.598 96.9727 269.715 96.6445C269.832 96.3164 270.031 96.0469 270.312 95.8359L270.277 95.2734C271.379 94.1016 272.551 93.0234 273.793 92.0391C275.012 91.0781 276.395 90.3633 277.941 89.8945C278.246 89.3555 278.645 88.957 279.137 88.6992C279.629 88.4648 280.133 88.2422 280.648 88.0312C281.141 87.8438 281.598 87.5977 282.02 87.293C282.441 87.0117 282.758 86.5547 282.969 85.9219C283.086 86.1797 283.203 86.2852 283.32 86.2383C283.438 86.2148 283.555 86.1562 283.672 86.0625C283.812 85.9922 283.941 85.9336 284.059 85.8867C284.176 85.8633 284.293 85.9688 284.41 86.2031C284.645 85.5 285.02 84.9375 285.535 84.5156C286.074 84.0938 286.66 83.7188 287.293 83.3906C287.949 83.0859 288.605 82.7812 289.262 82.4766C289.918 82.1953 290.492 81.8438 290.984 81.4219C291.5 81 291.887 80.4844 292.145 79.875C292.402 79.2422 292.461 78.4336 292.32 77.4492C292.531 77.3086 292.672 77.1328 292.742 76.9219C292.812 76.6875 292.859 76.4531 292.883 76.2188C292.93 75.9844 292.988 75.7734 293.059 75.5859C293.129 75.3984 293.281 75.2695 293.516 75.1992C293.352 74.9414 293.152 74.8242 292.918 74.8477C292.684 74.8711 292.438 74.9414 292.18 75.0586C291.945 75.1758 291.723 75.293 291.512 75.4102C291.301 75.5273 291.125 75.5508 290.984 75.4805C290.914 75.8086 290.762 76.043 290.527 76.1836C290.316 76.3242 290.082 76.4531 289.824 76.5703C289.566 76.6641 289.297 76.7695 289.016 76.8867C288.734 77.0039 288.512 77.1914 288.348 77.4492C288.137 77.3555 287.938 77.4023 287.75 77.5898C287.586 77.7539 287.41 77.9414 287.223 78.1523C287.059 78.3398 286.871 78.4805 286.66 78.5742C286.449 78.668 286.203 78.5742 285.922 78.293C285.781 78.668 285.547 78.9141 285.219 79.0312C284.914 79.1484 284.574 79.207 284.199 79.207C283.824 79.207 283.438 79.1836 283.039 79.1367C282.664 79.0898 282.324 79.1016 282.02 79.1719L281.422 78.5742C281.375 78.6914 281.305 78.7852 281.211 78.8555C281.094 78.9258 280.977 78.9375 280.859 78.8906C280.672 78.4922 280.496 78.0703 280.332 77.625C280.145 77.1562 280.027 76.6992 279.98 76.2539C279.91 75.7852 279.945 75.3398 280.086 74.918C280.227 74.4727 280.508 74.0859 280.93 73.7578C281.586 72.5625 282.441 71.625 283.496 70.9453C283.613 71.0391 283.742 71.0742 283.883 71.0508C284.023 71.0039 284.164 70.9453 284.305 70.875C284.469 70.7812 284.621 70.6875 284.762 70.5938C284.902 70.4766 285.031 70.4062 285.148 70.3828C285.219 70.125 285.348 69.8789 285.535 69.6445C285.746 69.4102 285.969 69.1992 286.203 69.0117C286.461 68.8242 286.719 68.6602 286.977 68.5195C287.258 68.3555 287.516 68.2148 287.75 68.0977C288.195 67.8867 288.605 67.6289 288.98 67.3242C289.379 66.9961 289.777 66.6914 290.176 66.4102C290.574 66.1055 290.984 65.8477 291.406 65.6367C291.828 65.4258 292.309 65.3203 292.848 65.3203L293.48 65.8828C293.082 66.1172 292.73 66.4102 292.426 66.7617C292.145 67.0898 291.852 67.4297 291.547 67.7812C291.242 68.1094 290.914 68.4141 290.562 68.6953C290.211 68.9766 289.777 69.1641 289.262 69.2578C288.84 70.0781 288.266 70.7812 287.539 71.3672C286.836 71.9297 286.109 72.457 285.359 72.9492C285.359 73.3008 285.254 73.582 285.043 73.793C284.832 74.0039 284.586 74.1914 284.305 74.3555C284.023 74.5195 283.742 74.6719 283.461 74.8125C283.18 74.9297 282.945 75.0938 282.758 75.3047C282.594 75.4922 282.512 75.7383 282.512 76.043C282.512 76.3242 282.664 76.6992 282.969 77.168C283.25 77.0273 283.59 76.9336 283.988 76.8867C284.387 76.8398 284.773 76.7812 285.148 76.7109C285.523 76.6172 285.852 76.4883 286.133 76.3242C286.438 76.1367 286.648 75.8555 286.766 75.4805C287.094 75.1992 287.445 75.0234 287.82 74.9531C288.195 74.8828 288.582 74.8711 288.98 74.918C289.754 74.0742 290.527 73.3008 291.301 72.5977C292.098 71.8711 292.848 71.1328 293.551 70.3828C294.254 69.6328 294.898 68.8359 295.484 67.9922C296.094 67.125 296.621 66.1289 297.066 65.0039C297.535 64.8633 297.957 64.9219 298.332 65.1797C298.707 65.4375 298.977 65.7656 299.141 66.1641C299.094 66.4453 299.012 66.7148 298.895 66.9727C298.801 67.207 298.707 67.4414 298.613 67.6758C298.543 67.8867 298.484 68.1211 298.438 68.3789C298.414 68.6367 298.461 68.9297 298.578 69.2578C298.391 69.2109 298.238 69.2695 298.121 69.4336C298.027 69.5977 297.922 69.7383 297.805 69.8555C297.875 70.1602 297.863 70.4414 297.77 70.6992C297.676 70.9336 297.559 71.168 297.418 71.4023C297.277 71.6133 297.148 71.8477 297.031 72.1055C296.938 72.3633 296.914 72.6445 296.961 72.9492C296.633 73.5586 296.387 74.2031 296.223 74.8828C296.082 75.5391 295.988 76.207 295.941 76.8867L296.574 77.4492C296.879 77.0039 297.254 76.6875 297.699 76.5C298.168 76.3125 298.637 76.1602 299.105 76.043C299.574 75.9023 300.031 75.75 300.477 75.5859C300.922 75.3984 301.309 75.082 301.637 74.6367C301.777 73.957 302.07 73.4766 302.516 73.1953C302.961 72.8906 303.43 72.6328 303.922 72.4219C304.414 72.2109 304.883 71.9766 305.328 71.7188C305.797 71.4375 306.125 70.9922 306.312 70.3828H307.191C307.145 70.5 307.168 70.6055 307.262 70.6992C307.355 70.793 307.438 70.875 307.508 70.9453ZM288.066 86.5195C287.832 86.6602 287.574 86.7891 287.293 86.9062C287.012 87.0234 286.73 87.1523 286.449 87.293C286.168 87.4336 285.91 87.5977 285.676 87.7852C285.441 87.9727 285.266 88.207 285.148 88.4883C284.891 88.3477 284.645 88.3359 284.41 88.4531C284.199 88.5938 283.988 88.7461 283.777 88.9102C283.566 89.0977 283.344 89.25 283.109 89.3672C282.898 89.4844 282.664 89.4727 282.406 89.332C281.961 89.6133 281.539 89.918 281.141 90.2461C280.719 90.5742 280.297 90.8906 279.875 91.1953C279.453 91.5234 279.02 91.8164 278.574 92.0742C278.105 92.3555 277.613 92.5664 277.098 92.707C276.84 93.1289 276.5 93.457 276.078 93.6914C275.656 93.9492 275.234 94.1953 274.812 94.4297C274.367 94.6641 273.969 94.9453 273.617 95.2734C273.266 95.6016 273.043 96.0586 272.949 96.6445C272.223 97.1133 271.73 97.7109 271.473 98.4375C271.191 99.1875 271.039 99.9727 271.016 100.793C270.992 101.637 271.027 102.48 271.121 103.324C271.215 104.191 271.262 104.977 271.262 105.68C271.566 106.031 271.871 106.277 272.176 106.418C272.48 106.559 272.797 106.629 273.125 106.629C273.453 106.629 273.793 106.582 274.145 106.488C274.473 106.418 274.836 106.348 275.234 106.277C275.328 105.926 275.504 105.691 275.762 105.574C275.996 105.48 276.254 105.41 276.535 105.363C276.793 105.316 277.039 105.246 277.273 105.152C277.484 105.082 277.602 104.895 277.625 104.59L277.941 104.871C277.965 104.496 278.07 104.18 278.258 103.922C278.445 103.688 278.668 103.465 278.926 103.254C279.184 103.043 279.465 102.844 279.77 102.656C280.051 102.469 280.297 102.258 280.508 102.023C280.461 101.578 280.543 101.203 280.754 100.898C280.965 100.594 281.199 100.312 281.457 100.055C281.715 99.7969 281.949 99.5156 282.16 99.2109C282.348 98.9062 282.418 98.5195 282.371 98.0508C282.605 97.957 282.77 97.8047 282.863 97.5938C282.957 97.3828 283.051 97.1836 283.145 96.9961C283.238 96.8086 283.355 96.668 283.496 96.5742C283.66 96.4805 283.906 96.5039 284.234 96.6445C283.906 96.3867 283.766 96.1875 283.812 96.0469C283.883 95.9062 284 95.7773 284.164 95.6602C284.328 95.5664 284.48 95.4492 284.621 95.3086C284.762 95.168 284.762 94.957 284.621 94.6758C285.184 94.4414 285.547 94.1016 285.711 93.6562C285.875 93.2109 285.992 92.7305 286.062 92.2148C286.156 91.7227 286.285 91.2305 286.449 90.7383C286.613 90.2695 286.977 89.8945 287.539 89.6133C287.492 89.1914 287.562 88.8164 287.75 88.4883C287.961 88.1836 288.16 87.8906 288.348 87.6094C288.559 87.3281 288.699 87.0352 288.77 86.7305C288.863 86.4258 288.781 86.0625 288.523 85.6406L288.066 86.5195ZM331.766 70.2422C331.555 70.4531 331.391 70.6172 331.273 70.7344C331.18 70.8516 331.086 70.9688 330.992 71.0859C330.922 71.1797 330.828 71.2852 330.711 71.4023C330.617 71.5195 330.465 71.6953 330.254 71.9297C330.066 72.1172 329.891 72.3164 329.727 72.5273C329.562 72.7383 329.375 72.9258 329.164 73.0898C328.883 73.0195 328.66 73.0547 328.496 73.1953C328.355 73.3359 328.215 73.5 328.074 73.6875C327.957 73.8516 327.84 74.0156 327.723 74.1797C327.629 74.3203 327.5 74.3789 327.336 74.3555C326.773 74.6602 326.211 74.9297 325.648 75.1641C325.086 75.375 324.547 75.6914 324.031 76.1133L323.75 75.832L320.094 77.5898C319.977 77.6367 319.859 77.707 319.742 77.8008C319.625 77.8945 319.508 77.9766 319.391 78.0469C318.875 78.3281 318.336 78.5859 317.773 78.8203C317.234 79.0312 316.695 79.2305 316.156 79.418L315.699 79.5586C315.887 80.0273 315.887 80.3555 315.699 80.543C315.512 80.7305 315.242 80.8711 314.891 80.9648C314.539 81.0352 314.152 81.082 313.73 81.1055C313.309 81.1289 312.98 81.2109 312.746 81.3516C312.465 81.3047 312.172 81.2812 311.867 81.2812C311.586 81.3047 311.293 81.3398 310.988 81.3867C310.66 81.4336 310.355 81.457 310.074 81.457C309.793 81.457 309.488 81.4219 309.16 81.3516H309.09C308.691 81.5391 308.34 81.5742 308.035 81.457C307.754 81.3633 307.496 81.1992 307.262 80.9648C307.027 80.707 306.805 80.4141 306.594 80.0859C306.406 79.7344 306.207 79.418 305.996 79.1367C305.855 78.9492 305.68 78.6797 305.469 78.3281C305.258 77.9766 305.082 77.6016 304.941 77.2031C304.777 76.8047 304.684 76.4062 304.66 76.0078C304.613 75.5859 304.695 75.2227 304.906 74.918C305.117 74.6133 305.293 74.2852 305.434 73.9336C305.551 73.582 305.609 73.1719 305.609 72.7031C305.609 72.5391 305.609 72.3867 305.609 72.2461C305.586 72.1055 305.574 71.9531 305.574 71.7891C305.691 71.7891 305.82 71.8008 305.961 71.8242C306.102 71.8242 306.23 71.8242 306.348 71.8242C306.488 71.8008 306.594 71.7539 306.664 71.6836C306.758 71.5898 306.805 71.4375 306.805 71.2266C306.805 71.1094 306.758 71.0156 306.664 70.9453C306.594 70.875 306.547 70.8047 306.523 70.7344C306.664 70.5234 306.793 70.3594 306.91 70.2422C307.051 70.1016 307.168 69.9727 307.262 69.8555C307.355 69.7148 307.426 69.5625 307.473 69.3984C307.52 69.2109 307.508 68.9648 307.438 68.6602C307.719 68.168 308.047 67.7344 308.422 67.3594C308.82 66.9609 309.23 66.5977 309.652 66.2695C310.074 65.918 310.508 65.5781 310.953 65.25C311.398 64.9219 311.82 64.5703 312.219 64.1953C312.664 64.3828 313.016 64.3828 313.273 64.1953C313.555 64.0078 313.801 63.8086 314.012 63.5977C314.223 63.3633 314.434 63.1758 314.645 63.0352C314.855 62.8945 315.137 62.9531 315.488 63.2109L315.559 63.2812C316.191 62.6484 316.824 62.3672 317.457 62.4375C318.113 62.5078 318.664 62.7188 319.109 63.0703C319.578 63.4219 319.883 63.832 320.023 64.3008C320.164 64.7461 320.035 65.0508 319.637 65.2148C319.895 65.4727 320.023 65.7773 320.023 66.1289C320.023 66.4805 319.93 66.7852 319.742 67.043C319.531 67.3242 319.344 67.6172 319.18 67.9219C319.039 68.2031 318.887 68.5078 318.723 68.8359C318.488 69.375 318.23 69.8906 317.949 70.3828C317.668 70.8516 317.27 71.25 316.754 71.5781C316.332 71.4609 316.039 71.5078 315.875 71.7188C315.734 71.9297 315.629 72.1641 315.559 72.4219C315.488 72.6562 315.406 72.8438 315.312 72.9844C315.219 73.125 315.02 73.0781 314.715 72.8438L314.645 72.7734L314.574 72.8438C314.387 73.0312 314.234 73.2422 314.117 73.4766C314.023 73.7109 313.883 73.8867 313.695 74.0039C313.484 73.9336 313.262 73.875 313.027 73.8281C312.793 73.7812 312.57 73.7344 312.359 73.6875C312.359 74.1797 312.266 74.5664 312.078 74.8477C311.891 75.1289 311.645 75.3633 311.34 75.5508C311.059 75.7148 310.73 75.8555 310.355 75.9727C309.98 76.0664 309.605 76.1953 309.23 76.3594C308.879 76.5 308.539 76.6875 308.211 76.9219C307.906 77.1328 307.66 77.4375 307.473 77.8359C307.707 78.0938 308 78.2461 308.352 78.293C308.703 78.3164 309.066 78.3164 309.441 78.293C309.816 78.2461 310.18 78.2227 310.531 78.2227C310.906 78.2227 311.234 78.3164 311.516 78.5039L311.551 78.5391L311.586 78.5039C312.148 78.4336 312.688 78.3047 313.203 78.1172C313.742 77.9062 314.258 77.6953 314.75 77.4844C315.266 77.25 315.781 77.0391 316.297 76.8516C316.836 76.6406 317.387 76.4883 317.949 76.3945C318.066 76.582 318.219 76.6875 318.406 76.7109C318.617 76.7344 318.816 76.7227 319.004 76.6758L319.039 76.6055C319.086 76.4414 319.133 76.3008 319.18 76.1836C319.227 76.043 319.297 75.8906 319.391 75.7266C319.555 75.4688 319.754 75.2695 319.988 75.1289C320.223 74.9883 320.469 74.8828 320.727 74.8125C321.008 74.7422 321.301 74.6953 321.605 74.6719C321.91 74.6484 322.215 74.6133 322.52 74.5664H322.59L322.625 74.4609C322.719 74.1797 322.836 73.9922 322.977 73.8984C323.141 73.7812 323.305 73.6992 323.469 73.6523C323.656 73.6055 323.844 73.5703 324.031 73.5469C324.242 73.5234 324.441 73.4531 324.629 73.3359C325.051 73.4766 325.402 73.4297 325.684 73.1953C325.965 72.9609 326.234 72.7148 326.492 72.457L326.773 72.8086L326.879 72.668C327.23 72.3398 327.488 72.0938 327.652 71.9297C327.84 71.7656 328.016 71.625 328.18 71.5078C328.344 71.3672 328.531 71.2383 328.742 71.1211C328.977 70.9805 329.293 70.7812 329.691 70.5234C330.02 70.3125 330.336 70.1016 330.641 69.8906C330.969 69.6797 331.285 69.4453 331.59 69.1875C331.707 69.2344 331.766 69.3281 331.766 69.4688C331.766 69.5859 331.766 69.7031 331.766 69.8203C331.742 69.8672 331.719 69.9375 331.695 70.0312C331.695 70.125 331.719 70.1953 331.766 70.2422ZM317.211 65.8477C317.188 65.8242 317.164 65.8125 317.141 65.8125C317.141 65.8125 317.129 65.8008 317.105 65.7773C316.613 65.5195 316.203 65.4023 315.875 65.4258C315.547 65.4258 315.242 65.5195 314.961 65.707C314.703 65.8711 314.457 66.0938 314.223 66.375C314.012 66.6328 313.777 66.8789 313.52 67.1133C313.285 67.3242 313.004 67.4883 312.676 67.6055C312.348 67.7227 311.949 67.7109 311.48 67.5703C311.41 67.9453 311.34 68.3203 311.27 68.6953C311.223 69.0469 311.188 69.4102 311.164 69.7852C310.766 69.9258 310.449 70.125 310.215 70.3828C310.004 70.6406 309.816 70.9219 309.652 71.2266C309.512 71.5312 309.371 71.8594 309.23 72.2109C309.113 72.5391 308.949 72.8555 308.738 73.1602L308.879 73.3359C308.973 73.2891 309.078 73.3242 309.195 73.4414C309.312 73.5586 309.395 73.6406 309.441 73.6875C309.699 73.3125 310.039 72.9961 310.461 72.7383C310.906 72.4805 311.352 72.2461 311.797 72.0352C312.266 71.8008 312.711 71.5547 313.133 71.2969C313.555 71.0391 313.871 70.6992 314.082 70.2773C314.832 70.0664 315.395 69.6445 315.77 69.0117C316.145 68.3789 316.461 67.7227 316.719 67.043C316.766 66.9023 316.848 66.7031 316.965 66.4453C317.105 66.1641 317.188 65.9648 317.211 65.8477Z" fill="#222222"/>
<defs>
<filter id="filter0_d" x="0" y="0" width="421" height="157" filterUnits="userSpaceOnUse" color-interpolation-filters="sRGB">
<feFlood flood-opacity="0" result="BackgroundImageFix"/>
<feColorMatrix in="SourceAlpha" type="matrix" values="0 0 0 0 0 0 0 0 0 0 0 0 0 0 0 0 0 0 127 0"/>
<feOffset dy="6"/>
<feGaussianBlur stdDeviation="10"/>
<feColorMatrix type="matrix" values="0 0 0 0 0.439216 0 0 0 0 0.564706 0 0 0 0 0.690196 0 0 0 0.2 0"/>
<feBlend mode="normal" in2="BackgroundImageFix" result="effect1_dropShadow"/>
<feBlend mode="normal" in="SourceGraphic" in2="effect1_dropShadow" result="shape"/>
</filter>
<radialGradient id="paint0_radial" cx="0" cy="0" r="1" gradientUnits="userSpaceOnUse" gradientTransform="translate(93 104.664) scale(42.6667 64)">
<stop stop-color="#FF8000"/>
<stop offset="1" stop-color="#FF8000" stop-opacity="0"/>
</radialGradient>
<radialGradient id="paint1_radial" cx="0" cy="0" r="1" gradientUnits="userSpaceOnUse" gradientTransform="translate(157 104.664) scale(42.6667 64)">
<stop stop-color="#00FF19"/>
<stop offset="1" stop-color="#00FF19" stop-opacity="0"/>
</radialGradient>
<radialGradient id="paint2_radial" cx="0" cy="0" r="1" gradientUnits="userSpaceOnUse" gradientTransform="translate(125 40.6641) scale(32 48)">
<stop stop-color="#9900FF"/>
<stop offset="1" stop-color="#9900FF" stop-opacity="0"/>
</radialGradient>
<radialGradient id="paint3_radial" cx="0" cy="0" r="1" gradientUnits="userSpaceOnUse" gradientTransform="translate(125 104.664) scale(32 48)">
<stop stop-color="#FFFF00"/>
<stop offset="1" stop-color="#FFFF00" stop-opacity="0"/>
</radialGradient>
<radialGradient id="paint4_radial" cx="0" cy="0" r="1" gradientUnits="userSpaceOnUse" gradientTransform="translate(93 40.6641) scale(42.6667 64)">
<stop stop-color="#FF0000"/>
<stop offset="1" stop-color="#FF0000" stop-opacity="0"/>
</radialGradient>
<radialGradient id="paint5_radial" cx="0" cy="0" r="1" gradientUnits="userSpaceOnUse" gradientTransform="translate(157 40.6641) scale(42.6667 64)">
<stop stop-color="#00CCFF"/>
<stop offset="1" stop-color="#00CCFF" stop-opacity="0"/>
</radialGradient>
</defs>
</svg>
