<svg width="171" height="105" viewBox="0 0 171 105" fill="none" xmlns="http://www.w3.org/2000/svg">
<path d="M2.50781 82.7422C1.55469 82.3672 0.898438 81.8594 0.539062 81.2188C0.179688 80.5781 0.03125 79.8672 0.09375 79.0859C0.171875 78.2891 0.421875 77.4453 0.84375 76.5547C1.28125 75.6484 1.8125 74.7422 2.4375 73.8359C3.07812 72.9297 3.78125 72.0469 4.54688 71.1875C5.3125 70.3281 6.07031 69.5391 6.82031 68.8203C7.57031 68.1016 8.27344 67.4766 8.92969 66.9453C9.58594 66.4141 10.1172 66.0234 10.5234 65.7734C11.0859 65.4297 11.5547 65.2656 11.9297 65.2812C12.3047 65.2812 12.6016 65.3984 12.8203 65.6328C13.0547 65.8516 13.2109 66.1641 13.2891 66.5703C13.3828 66.9609 13.4219 67.3828 13.4062 67.8359C13.4062 68.2734 13.3594 68.7188 13.2656 69.1719C13.1875 69.6094 13.0781 69.9922 12.9375 70.3203C12.8125 70.6484 12.6719 70.8906 12.5156 71.0469C12.375 71.2031 12.2344 71.2109 12.0938 71.0703C12.0781 70.9453 12.0938 70.7578 12.1406 70.5078C12.1875 70.2422 12.2422 69.9453 12.3047 69.6172C12.3828 69.2891 12.4531 68.9531 12.5156 68.6094C12.5781 68.2656 12.6172 67.9531 12.6328 67.6719C12.6641 67.375 12.6562 67.125 12.6094 66.9219C12.5781 66.7188 12.4922 66.6016 12.3516 66.5703C11.8047 66.4297 11.1484 66.5625 10.3828 66.9688C9.63281 67.3594 8.84375 67.9297 8.01562 68.6797C7.20312 69.4141 6.39062 70.2734 5.57812 71.2578C4.78125 72.2266 4.05469 73.2266 3.39844 74.2578C2.74219 75.2891 2.20312 76.2969 1.78125 77.2812C1.35938 78.25 1.11719 79.1094 1.05469 79.8594C1.00781 80.5938 1.17188 81.1641 1.54688 81.5703C1.9375 81.9609 2.61719 82.0859 3.58594 81.9453C4.47656 81.8203 5.29688 81.5078 6.04688 81.0078C6.8125 80.4922 7.54688 79.9297 8.25 79.3203C8.96875 78.6953 9.67969 78.0859 10.3828 77.4922C11.0859 76.8828 11.8203 76.4219 12.5859 76.1094C12.8672 76 13.0859 76.0391 13.2422 76.2266C13.4141 76.4141 13.4609 76.6406 13.3828 76.9062C13.2891 77.1719 13.0078 77.5234 12.5391 77.9609C12.0859 78.3984 11.5156 78.8594 10.8281 79.3438C10.1562 79.8125 9.41406 80.2891 8.60156 80.7734C7.78906 81.2422 6.99219 81.6484 6.21094 81.9922C5.44531 82.3359 4.72656 82.5859 4.05469 82.7422C3.39844 82.8984 2.88281 82.8984 2.50781 82.7422ZM16.1719 82.7422C15.7188 82.4141 15.4219 82 15.2812 81.5C15.1562 81 15.1406 80.4609 15.2344 79.8828C15.3281 79.2891 15.4922 78.6797 15.7266 78.0547C15.9766 77.4297 16.2422 76.8281 16.5234 76.25C16.8203 75.6719 17.1016 75.1406 17.3672 74.6562C17.6484 74.1719 17.8672 73.7734 18.0234 73.4609C18.0703 73.3672 18.1797 73.1406 18.3516 72.7812C18.5391 72.4219 18.7344 72.0312 18.9375 71.6094C19.1406 71.1875 19.3281 70.7969 19.5 70.4375C19.6875 70.0625 19.8047 69.8281 19.8516 69.7344C19.8984 69.6562 19.9609 69.5078 20.0391 69.2891C20.1328 69.0547 20.2344 68.8047 20.3438 68.5391C20.4531 68.2734 20.5703 68.0234 20.6953 67.7891C20.8359 67.5391 20.9766 67.3594 21.1172 67.25C21.2734 67.1406 21.4219 67.125 21.5625 67.2031C21.7188 67.2812 21.8672 67.5156 22.0078 67.9062C21.9453 68.0625 21.7891 68.375 21.5391 68.8438C21.3047 69.3125 21.0234 69.875 20.6953 70.5312C20.3672 71.1875 20 71.9141 19.5938 72.7109C19.2031 73.5078 18.8203 74.3125 18.4453 75.125C18.0703 75.9375 17.7188 76.7344 17.3906 77.5156C17.0625 78.2812 16.7891 78.9844 16.5703 79.625C16.3672 80.25 16.2422 80.7734 16.1953 81.1953C16.1641 81.6016 16.2422 81.8516 16.4297 81.9453C16.6484 82.0547 16.9297 82.1016 17.2734 82.0859C17.6328 82.0547 18 82.0078 18.375 81.9453C18.75 81.8828 19.1172 81.8203 19.4766 81.7578C19.8359 81.6797 20.1484 81.6484 20.4141 81.6641C20.4766 81.8047 20.4297 81.9453 20.2734 82.0859C20.1172 82.2109 19.8984 82.3281 19.6172 82.4375C19.3359 82.5312 19.0078 82.6172 18.6328 82.6953C18.2734 82.7578 17.9219 82.8047 17.5781 82.8359C17.25 82.8672 16.9531 82.875 16.6875 82.8594C16.4375 82.8438 16.2656 82.8047 16.1719 82.7422ZM22.7812 82.7422C23.4219 80.6797 24 79.0469 24.5156 77.8438C25.0469 76.625 25.4844 75.7734 25.8281 75.2891C26.1875 74.8047 26.4297 74.6484 26.5547 74.8203C26.6797 74.9922 26.6641 75.4297 26.5078 76.1328C26.3672 76.8359 26.0547 77.7812 25.5703 78.9688C25.1016 80.1406 24.4375 81.4844 23.5781 83C23.4531 83.0469 23.3047 83.0547 23.1328 83.0234C22.9609 82.9922 22.8438 82.8984 22.7812 82.7422ZM26.8828 71.4688C26.8516 71.3906 26.8359 71.25 26.8359 71.0469C26.8359 70.8438 26.8516 70.7188 26.8828 70.6719C27.2422 70.5469 27.5156 70.5312 27.7031 70.625C27.8906 70.7188 28.0078 70.8594 28.0547 71.0469C28.1016 71.2188 28.0938 71.4062 28.0312 71.6094C27.9844 71.8125 27.8984 71.9688 27.7734 72.0781C27.6484 72.1719 27.5 72.1875 27.3281 72.125C27.1719 72.0469 27.0234 71.8281 26.8828 71.4688ZM30.8672 82.7422C30.0703 82.4766 29.5391 82.0625 29.2734 81.5C29.0234 80.9375 28.9531 80.3047 29.0625 79.6016C29.1875 78.8828 29.4609 78.1328 29.8828 77.3516C30.3047 76.5547 30.8047 75.7969 31.3828 75.0781C31.9609 74.3594 32.5703 73.7109 33.2109 73.1328C33.8516 72.5547 34.4531 72.1172 35.0156 71.8203C35.5938 71.5234 36.0859 71.4062 36.4922 71.4688C36.8984 71.5312 37.1484 71.8438 37.2422 72.4062C37.2891 72.6562 37.2578 72.9297 37.1484 73.2266C37.0547 73.5234 36.9141 73.8125 36.7266 74.0938C36.5547 74.3594 36.3516 74.6094 36.1172 74.8438C35.8984 75.0625 35.6797 75.2266 35.4609 75.3359C35.2578 75.4453 35.0703 75.4844 34.8984 75.4531C34.7422 75.4219 34.6406 75.2891 34.5938 75.0547C34.7812 74.7422 34.9922 74.4297 35.2266 74.1172C35.4609 73.7891 35.6875 73.4844 35.9062 73.2031C35.8125 73.0312 35.6328 72.9922 35.3672 73.0859C35.1016 73.1797 34.7812 73.3672 34.4062 73.6484C34.0312 73.9297 33.6328 74.2891 33.2109 74.7266C32.8047 75.1484 32.4062 75.6094 32.0156 76.1094C31.625 76.6094 31.2734 77.1328 30.9609 77.6797C30.6641 78.2109 30.4453 78.7266 30.3047 79.2266C30.1641 79.7266 30.125 80.1953 30.1875 80.6328C30.2656 81.0547 30.4922 81.3984 30.8672 81.6641C31.3828 81.7109 31.9766 81.6641 32.6484 81.5234C33.3203 81.3672 34.0078 81.1719 34.7109 80.9375C35.4141 80.7031 36.1094 80.4531 36.7969 80.1875C37.5 79.9062 38.1328 79.6484 38.6953 79.4141C39.2734 79.1797 39.7578 79 40.1484 78.875C40.5547 78.7344 40.8203 78.6953 40.9453 78.7578C41.2422 78.9141 41.2578 79.1406 40.9922 79.4375C40.7422 79.7344 40.3125 80.0547 39.7031 80.3984C39.0938 80.7422 38.3672 81.0859 37.5234 81.4297C36.6953 81.7578 35.8594 82.0469 35.0156 82.2969C34.1719 82.5312 33.375 82.7031 32.625 82.8125C31.875 82.9062 31.2891 82.8828 30.8672 82.7422ZM51.5156 82.2031C50.5156 80.8281 49.7109 79.6953 49.1016 78.8047C48.4922 77.8984 47.9922 77.2266 47.6016 76.7891C47.2109 76.3516 46.8906 76.1406 46.6406 76.1562C46.3906 76.1719 46.1172 76.4141 45.8203 76.8828C45.5391 77.3359 45.1875 78.0078 44.7656 78.8984C44.3438 79.7891 43.7656 80.8906 43.0312 82.2031C42.9375 82.375 42.8359 82.4844 42.7266 82.5312C42.6328 82.5625 42.5391 82.5625 42.4453 82.5312C42.3516 82.4844 42.2656 82.4062 42.1875 82.2969C42.1094 82.1875 42.0469 82.0703 42 81.9453C41.9531 81.7891 42.0078 81.4922 42.1641 81.0547C42.3203 80.6016 42.5469 80.0625 42.8438 79.4375C43.1562 78.7969 43.5156 78.0938 43.9219 77.3281C44.3438 76.5469 44.7812 75.75 45.2344 74.9375C45.7031 74.125 46.1641 73.3203 46.6172 72.5234C47.0859 71.7266 47.5156 70.9922 47.9062 70.3203C48.3125 69.6328 48.6719 69.0312 48.9844 68.5156C49.2969 68 49.5234 67.6172 49.6641 67.3672C49.7734 67.2891 49.8828 67.2812 49.9922 67.3438C50.1172 67.4062 50.2188 67.5078 50.2969 67.6484C50.3906 67.7734 50.4531 67.9141 50.4844 68.0703C50.5156 68.2109 50.5 68.3281 50.4375 68.4219L48.3281 72.125V72.6641C48.6562 72.7422 49.0625 72.7188 49.5469 72.5938C50.0469 72.4531 50.5781 72.2578 51.1406 72.0078C51.7188 71.7578 52.3047 71.4688 52.8984 71.1406C53.4922 70.7969 54.0547 70.4609 54.5859 70.1328C55.1328 69.7891 55.6172 69.4688 56.0391 69.1719C56.4766 68.8594 56.8203 68.6094 57.0703 68.4219C57.2734 68.3125 57.4531 68.2812 57.6094 68.3281C57.7812 68.375 57.9062 68.4609 57.9844 68.5859C58.0781 68.7109 58.1172 68.8594 58.1016 69.0312C58.0859 69.2031 58.0078 69.3594 57.8672 69.5C57.4297 69.9531 56.9062 70.3438 56.2969 70.6719C55.7031 70.9844 55.0703 71.2734 54.3984 71.5391C53.7266 71.7891 53.0391 72.0312 52.3359 72.2656C51.6484 72.4844 50.9844 72.7266 50.3438 72.9922C49.7031 73.2578 49.1172 73.5547 48.5859 73.8828C48.0547 74.2109 47.6172 74.6016 47.2734 75.0547C47.4766 75.2266 47.7422 75.5 48.0703 75.875C48.4141 76.2344 48.7812 76.6406 49.1719 77.0938C49.5781 77.5469 49.9844 78.0312 50.3906 78.5469C50.7969 79.0469 51.1562 79.5391 51.4688 80.0234C51.7969 80.4922 52.0625 80.9219 52.2656 81.3125C52.4844 81.6875 52.5938 81.9844 52.5938 82.2031V82.7422C52.4688 82.8047 52.3516 82.8281 52.2422 82.8125C52.1484 82.7812 52.0547 82.7344 51.9609 82.6719C51.8672 82.6094 51.7812 82.5391 51.7031 82.4609C51.6406 82.3672 51.5781 82.2812 51.5156 82.2031ZM73.4062 82.7422C73.3906 82.7109 73.3828 82.625 73.3828 82.4844C73.3828 82.3438 73.3906 82.25 73.4062 82.2031C73.4531 82.0312 73.5391 81.7344 73.6641 81.3125C73.7891 80.875 73.9219 80.4219 74.0625 79.9531C74.2031 79.4688 74.3359 79.0156 74.4609 78.5938C74.5859 78.1719 74.6719 77.875 74.7188 77.7031C74.7812 77.4844 74.8516 77.2344 74.9297 76.9531C75.0078 76.6562 75.0234 76.375 74.9766 76.1094C74.7422 76.0781 74.4531 76.1094 74.1094 76.2031C73.7656 76.2812 73.4219 76.3516 73.0781 76.4141C72.75 76.4609 72.4375 76.4609 72.1406 76.4141C71.8594 76.3516 71.6562 76.1641 71.5312 75.8516C71.7188 75.4609 72 75.2109 72.375 75.1016C72.75 74.9766 73.1562 74.8906 73.5938 74.8438C74.0312 74.7969 74.4453 74.7266 74.8359 74.6328C75.2422 74.5391 75.5625 74.3281 75.7969 74C75.9375 73.5938 76.1016 73.1016 76.2891 72.5234C76.4922 71.9297 76.7031 71.3125 76.9219 70.6719C77.1406 70.0312 77.375 69.3984 77.625 68.7734C77.8906 68.1484 78.1641 67.5938 78.4453 67.1094C78.6172 67 78.7578 66.9922 78.8672 67.0859C78.9766 67.1797 79.0547 67.3203 79.1016 67.5078C79.1641 67.6797 79.2031 67.8594 79.2188 68.0469C79.2344 68.2344 79.2344 68.3594 79.2188 68.4219C79.125 68.8281 78.9609 69.2656 78.7266 69.7344C78.5078 70.1875 78.2969 70.6484 78.0938 71.1172C77.9062 71.5859 77.75 72.0547 77.625 72.5234C77.5156 72.9922 77.5156 73.4375 77.625 73.8594H82.6641C82.6797 73.8594 82.7188 73.9141 82.7812 74.0234C82.8438 74.1172 82.8984 74.1953 82.9453 74.2578C83.0234 74.4766 82.9375 74.625 82.6875 74.7031C82.4375 74.7812 82.1016 74.8359 81.6797 74.8672C81.2578 74.8828 80.7734 74.8984 80.2266 74.9141C79.6953 74.9141 79.1797 74.9531 78.6797 75.0312C78.1953 75.0938 77.7578 75.2109 77.3672 75.3828C76.9766 75.5391 76.7109 75.7812 76.5703 76.1094C76.1641 77.1562 75.7891 78.2109 75.4453 79.2734C75.1016 80.3203 74.7734 81.3828 74.4609 82.4609C74.4297 82.5078 74.3672 82.5859 74.2734 82.6953C74.1797 82.7891 74.0781 82.875 73.9688 82.9531C73.8594 83.0156 73.75 83.0391 73.6406 83.0234C73.5469 83.0078 73.4688 82.9141 73.4062 82.7422ZM83.2031 82.7422C82.5469 82.4766 82.1328 82.0781 81.9609 81.5469C81.8047 81.0156 81.8125 80.4297 81.9844 79.7891C82.1562 79.1328 82.4531 78.4609 82.875 77.7734C83.2969 77.0703 83.7656 76.4297 84.2812 75.8516C84.7969 75.2734 85.3125 74.7891 85.8281 74.3984C86.3594 73.9922 86.8125 73.7656 87.1875 73.7188C88.1562 73.5938 88.9141 73.6641 89.4609 73.9297C90.0234 74.1797 90.4062 74.5469 90.6094 75.0312C90.8125 75.5156 90.8672 76.0859 90.7734 76.7422C90.6797 77.3828 90.4688 78.0312 90.1406 78.6875C89.8281 79.3438 89.4141 79.9766 88.8984 80.5859C88.3984 81.1953 87.8359 81.7109 87.2109 82.1328C86.6016 82.5391 85.9531 82.8125 85.2656 82.9531C84.5781 83.0781 83.8906 83.0078 83.2031 82.7422ZM82.9453 81.4062C83.0703 81.9062 83.3359 82.1875 83.7422 82.25C84.1484 82.2969 84.6172 82.1953 85.1484 81.9453C85.6953 81.6797 86.2656 81.3047 86.8594 80.8203C87.4531 80.3203 87.9922 79.7812 88.4766 79.2031C88.9766 78.625 89.3828 78.0469 89.6953 77.4688C90.0234 76.875 90.1797 76.3594 90.1641 75.9219C90.1641 75.4844 89.9531 75.1562 89.5312 74.9375C89.125 74.7031 88.4375 74.6562 87.4688 74.7969C87.25 75 86.9688 75.25 86.625 75.5469C86.2812 75.8281 85.9219 76.1406 85.5469 76.4844C85.1875 76.8281 84.8281 77.2031 84.4688 77.6094C84.1094 78 83.7969 78.4062 83.5312 78.8281C83.2656 79.25 83.0703 79.6797 82.9453 80.1172C82.8359 80.5547 82.8359 80.9844 82.9453 81.4062ZM106.547 82.7422C105.594 82.3672 104.938 81.8594 104.578 81.2188C104.219 80.5781 104.07 79.8672 104.133 79.0859C104.211 78.2891 104.461 77.4453 104.883 76.5547C105.32 75.6484 105.852 74.7422 106.477 73.8359C107.117 72.9297 107.82 72.0469 108.586 71.1875C109.352 70.3281 110.109 69.5391 110.859 68.8203C111.609 68.1016 112.312 67.4766 112.969 66.9453C113.625 66.4141 114.156 66.0234 114.562 65.7734C115.125 65.4297 115.594 65.2656 115.969 65.2812C116.344 65.2812 116.641 65.3984 116.859 65.6328C117.094 65.8516 117.25 66.1641 117.328 66.5703C117.422 66.9609 117.461 67.3828 117.445 67.8359C117.445 68.2734 117.398 68.7188 117.305 69.1719C117.227 69.6094 117.117 69.9922 116.977 70.3203C116.852 70.6484 116.711 70.8906 116.555 71.0469C116.414 71.2031 116.273 71.2109 116.133 71.0703C116.117 70.9453 116.133 70.7578 116.18 70.5078C116.227 70.2422 116.281 69.9453 116.344 69.6172C116.422 69.2891 116.492 68.9531 116.555 68.6094C116.617 68.2656 116.656 67.9531 116.672 67.6719C116.703 67.375 116.695 67.125 116.648 66.9219C116.617 66.7188 116.531 66.6016 116.391 66.5703C115.844 66.4297 115.188 66.5625 114.422 66.9688C113.672 67.3594 112.883 67.9297 112.055 68.6797C111.242 69.4141 110.43 70.2734 109.617 71.2578C108.82 72.2266 108.094 73.2266 107.438 74.2578C106.781 75.2891 106.242 76.2969 105.82 77.2812C105.398 78.25 105.156 79.1094 105.094 79.8594C105.047 80.5938 105.211 81.1641 105.586 81.5703C105.977 81.9609 106.656 82.0859 107.625 81.9453C108.516 81.8203 109.336 81.5078 110.086 81.0078C110.852 80.4922 111.586 79.9297 112.289 79.3203C113.008 78.6953 113.719 78.0859 114.422 77.4922C115.125 76.8828 115.859 76.4219 116.625 76.1094C116.906 76 117.125 76.0391 117.281 76.2266C117.453 76.4141 117.5 76.6406 117.422 76.9062C117.328 77.1719 117.047 77.5234 116.578 77.9609C116.125 78.3984 115.555 78.8594 114.867 79.3438C114.195 79.8125 113.453 80.2891 112.641 80.7734C111.828 81.2422 111.031 81.6484 110.25 81.9922C109.484 82.3359 108.766 82.5859 108.094 82.7422C107.438 82.8984 106.922 82.8984 106.547 82.7422ZM120.727 82.7422C120.07 82.4766 119.656 82.0781 119.484 81.5469C119.328 81.0156 119.336 80.4297 119.508 79.7891C119.68 79.1328 119.977 78.4609 120.398 77.7734C120.82 77.0703 121.289 76.4297 121.805 75.8516C122.32 75.2734 122.836 74.7891 123.352 74.3984C123.883 73.9922 124.336 73.7656 124.711 73.7188C125.68 73.5938 126.438 73.6641 126.984 73.9297C127.547 74.1797 127.93 74.5469 128.133 75.0312C128.336 75.5156 128.391 76.0859 128.297 76.7422C128.203 77.3828 127.992 78.0312 127.664 78.6875C127.352 79.3438 126.938 79.9766 126.422 80.5859C125.922 81.1953 125.359 81.7109 124.734 82.1328C124.125 82.5391 123.477 82.8125 122.789 82.9531C122.102 83.0781 121.414 83.0078 120.727 82.7422ZM120.469 81.4062C120.594 81.9062 120.859 82.1875 121.266 82.25C121.672 82.2969 122.141 82.1953 122.672 81.9453C123.219 81.6797 123.789 81.3047 124.383 80.8203C124.977 80.3203 125.516 79.7812 126 79.2031C126.5 78.625 126.906 78.0469 127.219 77.4688C127.547 76.875 127.703 76.3594 127.688 75.9219C127.688 75.4844 127.477 75.1562 127.055 74.9375C126.648 74.7031 125.961 74.6562 124.992 74.7969C124.773 75 124.492 75.25 124.148 75.5469C123.805 75.8281 123.445 76.1406 123.07 76.4844C122.711 76.8281 122.352 77.2031 121.992 77.6094C121.633 78 121.32 78.4062 121.055 78.8281C120.789 79.25 120.594 79.6797 120.469 80.1172C120.359 80.5547 120.359 80.9844 120.469 81.4062ZM126.844 91.2031C126.703 90.3281 126.75 89.4375 126.984 88.5312C127.203 87.6406 127.5 86.75 127.875 85.8594C128.234 84.9688 128.602 84.0781 128.977 83.1875C129.352 82.3125 129.609 81.4531 129.75 80.6094C129.75 80.5781 129.812 80.4844 129.938 80.3281C130.078 80.1719 130.227 80.0078 130.383 79.8359C130.555 79.6484 130.703 79.4766 130.828 79.3203C130.969 79.1484 131.047 79.0469 131.062 79.0156C131.312 78.4688 131.562 77.9688 131.812 77.5156C132.078 77.0469 132.281 76.5938 132.422 76.1562C132.562 75.7188 132.625 75.2891 132.609 74.8672C132.594 74.4297 132.438 73.9609 132.141 73.4609C132.109 73.4297 132.094 73.3828 132.094 73.3203C132.094 73.2578 132.109 73.2188 132.141 73.2031C132.594 72.625 133.117 72.1406 133.711 71.75C134.305 71.3594 134.938 71.0469 135.609 70.8125C136.281 70.5781 136.977 70.4219 137.695 70.3438C138.414 70.2656 139.125 70.25 139.828 70.2969C140.422 70.7969 140.797 71.3672 140.953 72.0078C141.125 72.6328 141.133 73.2891 140.977 73.9766C140.836 74.6484 140.562 75.3281 140.156 76.0156C139.766 76.7031 139.312 77.3438 138.797 77.9375C138.281 78.5312 137.734 79.0625 137.156 79.5312C136.594 80 136.062 80.3594 135.562 80.6094C135.109 80.8281 134.773 80.9766 134.555 81.0547C134.352 81.1172 134.148 81.1562 133.945 81.1719C133.742 81.1875 133.492 81.2031 133.195 81.2188C132.914 81.2344 132.477 81.2969 131.883 81.4062C131.617 81.4531 131.391 81.5781 131.203 81.7812C131.031 81.9688 130.883 82.1875 130.758 82.4375C130.648 82.6719 130.555 82.9141 130.477 83.1641C130.414 83.4297 130.352 83.6406 130.289 83.7969C130.008 84.4844 129.75 85.1172 129.516 85.6953C129.297 86.2891 129.086 86.8672 128.883 87.4297C128.664 88.0078 128.453 88.6016 128.25 89.2109C128.047 89.8203 127.836 90.4844 127.617 91.2031C127.586 91.2812 127.531 91.3438 127.453 91.3906C127.375 91.4531 127.297 91.4844 127.219 91.4844C127.125 91.5 127.047 91.4844 126.984 91.4375C126.906 91.4062 126.859 91.3281 126.844 91.2031ZM132.141 80.3516C132.859 80.4922 133.555 80.4531 134.227 80.2344C134.914 80.0156 135.555 79.6797 136.148 79.2266C136.742 78.7578 137.273 78.2031 137.742 77.5625C138.227 76.9062 138.633 76.2188 138.961 75.5C139.289 74.7812 139.531 74.0625 139.688 73.3438C139.844 72.6094 139.891 71.9375 139.828 71.3281C139.609 71.1406 139.344 71.0469 139.031 71.0469C138.734 71.0312 138.469 71.0391 138.234 71.0703C137.391 71.1797 136.727 71.3984 136.242 71.7266C135.758 72.0391 135.359 72.4375 135.047 72.9219C134.75 73.4062 134.492 73.9688 134.273 74.6094C134.055 75.2344 133.789 75.9141 133.477 76.6484C133.414 76.7578 133.32 76.9531 133.195 77.2344C133.07 77.5 132.938 77.7891 132.797 78.1016C132.656 78.3984 132.523 78.6875 132.398 78.9688C132.273 79.25 132.188 79.4453 132.141 79.5547V80.3516ZM137.672 92C137.531 91.7812 137.539 91.4375 137.695 90.9688C137.836 90.5156 138.047 90.0391 138.328 89.5391C138.594 89.0547 138.875 88.5938 139.172 88.1562C139.453 87.7344 139.664 87.4297 139.805 87.2422C139.93 87.0703 140.125 86.8125 140.391 86.4688C140.641 86.125 140.93 85.7344 141.258 85.2969C141.586 84.8594 141.93 84.3984 142.289 83.9141C142.664 83.4297 143.016 82.9766 143.344 82.5547C143.672 82.1172 143.969 81.7266 144.234 81.3828C144.5 81.0391 144.695 80.7812 144.82 80.6094C144.945 80.4688 144.945 80.25 144.82 79.9531C144.695 79.6562 144.5 79.3125 144.234 78.9219C143.984 78.5156 143.695 78.0781 143.367 77.6094C143.055 77.125 142.766 76.6406 142.5 76.1562C142.25 75.6562 142.055 75.1641 141.914 74.6797C141.789 74.1953 141.789 73.7422 141.914 73.3203C142.086 73.1953 142.273 73.2734 142.477 73.5547C142.68 73.8203 142.891 74.1953 143.109 74.6797C143.344 75.1484 143.586 75.6719 143.836 76.25C144.086 76.8125 144.328 77.3281 144.562 77.7969C144.797 78.25 145.023 78.6094 145.242 78.875C145.477 79.1406 145.695 79.1953 145.898 79.0391C146.305 78.7422 146.703 78.3672 147.094 77.9141C147.484 77.4453 147.859 76.9609 148.219 76.4609C148.578 75.9609 148.914 75.4766 149.227 75.0078C149.555 74.5234 149.859 74.1016 150.141 73.7422C150.25 73.6016 150.352 73.5078 150.445 73.4609C150.555 73.3984 150.719 73.4062 150.938 73.4844C151.109 73.5469 151.078 73.8203 150.844 74.3047C150.609 74.7891 150.242 75.4141 149.742 76.1797C149.242 76.9453 148.641 77.8203 147.938 78.8047C147.25 79.7734 146.516 80.7891 145.734 81.8516C144.969 82.8984 144.195 83.9453 143.414 84.9922C142.648 86.0391 141.945 87.0078 141.305 87.8984C140.648 88.8047 140.094 89.5938 139.641 90.2656C139.172 90.9531 138.867 91.4531 138.727 91.7656C138.664 91.9062 138.602 92.0469 138.539 92.1875C138.461 92.3281 138.359 92.4453 138.234 92.5391C138.203 92.5234 138.164 92.4922 138.117 92.4453C138.055 92.3984 138 92.3438 137.953 92.2812C137.891 92.2344 137.836 92.1797 137.789 92.1172C137.727 92.0703 137.688 92.0312 137.672 92Z" fill="black"/>
<path d="M76 63V63C76 35.3858 98.3858 13 126 13H169" stroke="black"/>
<path d="M157.5 25L169.5 13L157.5 1" stroke="black"/>
</svg>
